<svg xmlns="http://www.w3.org/2000/svg" viewBox="0 0 156.11 87.76"><defs><style>.cls-1{fill:#fff;}.cls-2{fill:#5b9aa5;}.cls-3{fill:#040606;}</style></defs><g id="Calque_2" data-name="Calque 2"><g id="Calque_4" data-name="Calque 4"><path class="cls-1" d="M0,69.09a.27.27,0,0,1,.28-.28H9c4.37,0,7,2,7,5.16a4.17,4.17,0,0,1-2.39,3.92.27.27,0,0,0,0,.49,4,4,0,0,1,2.64,3.93c0,3.3-2.58,5.14-7.27,5.14H.28A.27.27,0,0,1,0,87.18Zm4.75,3.57v3.51a.27.27,0,0,0,.27.27h3.5c1.7,0,2.64-.73,2.64-2.06s-.91-2-2.64-2H5A.27.27,0,0,0,4.75,72.66Zm0,7.49V83.6a.28.28,0,0,0,.27.28H8.76c1.76,0,2.66-.68,2.66-2.07s-.93-1.94-2.66-1.94H5A.27.27,0,0,0,4.75,80.15Z"/><path class="cls-1" d="M28.86,87.76c-6.27,0-10.58-3.93-10.58-9.63s4.34-9.65,10.6-9.65,10.64,3.93,10.64,9.63S35.15,87.76,28.86,87.76Zm.05-15.35c-3.51,0-5.62,2.14-5.62,5.7s2.11,5.72,5.62,5.72,5.6-2.2,5.6-5.72S32.4,72.41,28.91,72.41Z"/><path class="cls-1" d="M39.82,87.07,47.33,69a.27.27,0,0,1,.25-.17h4.26a.29.29,0,0,1,.26.17l7.47,18.09a.27.27,0,0,1-.25.38H54.88a.3.3,0,0,1-.26-.17L53.24,83.7a.28.28,0,0,0-.26-.18H46.36a.27.27,0,0,0-.26.18l-1.41,3.58a.3.3,0,0,1-.26.17H40.08A.28.28,0,0,1,39.82,87.07Zm8.13-7h3.47a.28.28,0,0,0,.26-.38l-1.41-3.61a14.39,14.39,0,0,1-.59-1.81,12.51,12.51,0,0,1-.58,1.81l-1.41,3.61A.28.28,0,0,0,48,80.1Z"/><path class="cls-1" d="M59,68.81H75.45a.28.28,0,0,1,.28.28v3.22a.29.29,0,0,1-.28.28h-5.6a.27.27,0,0,0-.27.27V87.18a.28.28,0,0,1-.28.27H65.11a.27.27,0,0,1-.28-.27V72.86a.27.27,0,0,0-.28-.27H59a.28.28,0,0,1-.28-.28V69.09A.27.27,0,0,1,59,68.81Z"/><path class="cls-1" d="M78.57,87.18V69.09a.27.27,0,0,1,.28-.28H92.06a.28.28,0,0,1,.28.28v3.22a.29.29,0,0,1-.28.28H83.59a.27.27,0,0,0-.27.27V76a.27.27,0,0,0,.27.28H91a.28.28,0,0,1,.27.28v3a.28.28,0,0,1-.27.28H83.59a.27.27,0,0,0-.27.28v3.3a.27.27,0,0,0,.27.27h8.47a.29.29,0,0,1,.28.28v3.23a.28.28,0,0,1-.28.27H78.85A.27.27,0,0,1,78.57,87.18Z"/><path class="cls-1" d="M101.26,83.67h8a.28.28,0,0,1,.27.28v3.23a.27.27,0,0,1-.27.27H96.51a.28.28,0,0,1-.28-.27V69.09a.28.28,0,0,1,.28-.28h4.19a.27.27,0,0,1,.28.28V83.4A.27.27,0,0,0,101.26,83.67Z"/><path class="cls-1" d="M117,87.45H112.8a.28.28,0,0,1-.28-.27V69.09a.28.28,0,0,1,.28-.28H117a.28.28,0,0,1,.28.28V87.18A.28.28,0,0,1,117,87.45Z"/><path class="cls-1" d="M121.78,87.18V69.09a.27.27,0,0,1,.28-.28h13.21a.28.28,0,0,1,.28.28v3.22a.29.29,0,0,1-.28.28H126.8a.27.27,0,0,0-.27.27V76a.27.27,0,0,0,.27.28h7.45a.28.28,0,0,1,.27.28v3a.28.28,0,0,1-.27.28H126.8a.27.27,0,0,0-.27.28v3.3a.27.27,0,0,0,.27.27h8.47a.29.29,0,0,1,.28.28v3.23a.28.28,0,0,1-.28.27H122.06A.27.27,0,0,1,121.78,87.18Z"/><path class="cls-1" d="M139.44,87.18V69.09a.28.28,0,0,1,.28-.28h8.1c5.27,0,8.26,2.19,8.26,6a5.29,5.29,0,0,1-3.34,5.07.27.27,0,0,0-.13.37l3.47,6.75a.27.27,0,0,1-.25.4h-4.56a.27.27,0,0,1-.24-.15l-3.1-6.22a.28.28,0,0,0-.25-.15h-3.21a.27.27,0,0,0-.28.27v6a.27.27,0,0,1-.28.27h-4.19A.28.28,0,0,1,139.44,87.18Zm4.75-10.11a.27.27,0,0,0,.28.28h3.32c2.08,0,3.28-.91,3.28-2.49s-1.14-2.42-3.25-2.42h-3.35a.27.27,0,0,0-.28.27Z"/><path class="cls-2" d="M73.55,9.14a6.16,6.16,0,0,1,0,1,5.05,5.05,0,0,1-.11,1v.06l-.06,1.08c0,.13,0,.26,0,.39l0,.35-.06.58c0,.24,0,.48-.07.72s0,.32-.05.48l0,.1c0,.11,0,.23,0,.35,0,.38,0,.76-.05,1.14s0,.73,0,1.09-.08.84-.11,1.27-.07.71-.1,1.06-.08.72-.11,1.07c0,0,0,.05,0,.08l-.07,0c-.52.23-1,.5-1.57.68l-.55.22c-.2.07-.4.12-.61.18l-.54.13c0-.26.06-.52.08-.79s0-.56,0-.85a2.41,2.41,0,0,1,0-.65,0,0,0,0,0,0,0c0-.1,0-.21,0-.32a1.37,1.37,0,0,1,0-.35l.09-1.5c0-.3,0-.6,0-.9,0-.59,0-1.18,0-1.77a.45.45,0,0,1,0-.11.5.5,0,0,0,0-.32.21.21,0,0,0,0-.11L69.68,13c0-.13,0-.27,0-.41s0-.22,0-.33,0-.43,0-.65v-.05c0-.33,0-.67.06-1s.06-.51.1-.76.1-.52.15-.78a.75.75,0,0,0,0-.15c0-.25.1-1.39.11-1.5s.05-.52.09-.78c0-.11.24-1.87.26-2.15s0-.46.08-.69.12-.59.14-.89.07-.84.08-1.26c0-.18,0-.35,0-.53s0-.43,0-.48,0-.33,0-.33L71,.35c0,.05,0-.18,0-.17s.15.08.29-.13c0-.06.23-.07.26,0s.15,0,.22,0,.54.23.62.26.5.11.52.14.06.06.1.08.11,0,.15-.06.12,0,.21.07l.14.11A.65.65,0,0,0,73.79.4s.44-.09.51,0,.1.18.14.27.09.11,0,.16a.06.06,0,0,0,0,.06c.11.14,0,.3,0,.45a2.6,2.6,0,0,1,0,.26s0,.34,0,.38,0,.07,0,.1A11.09,11.09,0,0,1,74.13,4s-.26,1.92-.28,2.13c0,.36-.07,1.42-.12,1.58a1.86,1.86,0,0,0-.09.47C73.63,8.25,73.56,8.91,73.55,9.14Zm-2.3,11h0c0-.22,0-.44,0-.65l.12-1.38.06-.78c0-.19,0-.38,0-.57s.05-.48.07-.71,0-.49,0-.72l.12-1.11c0-.16,0-.32,0-.48s0-.47,0-.7,0-.29,0-.43l.09-.83s0-.08,0-.13c0-.22,0-.44.07-.67a.3.3,0,0,0-.06.11c0,.19,0,.38,0,.57s0,.42-.05.63,0,.29,0,.43,0,.44-.08.66,0,.43,0,.65,0,.27,0,.41l-.12,1.13c0,.22,0,.45,0,.68s0,.33,0,.5c-.05.61-.11,1.22-.16,1.83,0,.28,0,.56,0,.85,0,0,0,.05,0,.08C71.27,19.72,71.26,19.93,71.25,20.14ZM70.4,7.61c0,.4-.07.77-.11,1.13s-.06.76-.08,1.14,0,.71,0,1.07c0,.14,0,.28,0,.42a7.38,7.38,0,0,0,0,.94.28.28,0,0,0,0,.09.09.09,0,0,0,.05,0s0,0,0,0,0-.07,0-.11c0-.48,0-1,.05-1.44s0-.82.08-1.23c0-.1,0-.2,0-.3s0-.38,0-.57c0,0,0,0,0-.06s0-.31,0-.46,0-.34,0-.5A.54.54,0,0,0,70.4,7.61ZM71.56,8h0c0,.29-.09.58-.13.88l-.21,1.38-.12.89c0,.27-.07.54-.1.81s0,.4,0,.61l-.12,1.13v.23a.57.57,0,0,0,.07-.22c0-.07,0-.15,0-.22l.12-1c0-.32.07-.63.11-.94s.11-.79.16-1.19.09-.75.14-1.13c0-.2.06-.41.08-.61S71.54,8.15,71.56,8ZM73.35.71h0v.5a1.13,1.13,0,0,1,0,.26,2.93,2.93,0,0,0,0,.59c0,.11,0,.22,0,.33,0,.39,0,.79-.06,1.18s0,.75,0,1.12v.13c0,.09,0,.18,0,.27a.3.3,0,0,0,.06-.18c0-.15,0-.31,0-.46,0-.36,0-.71.07-1.07s0-.71,0-1.07C73.37,1.78,73.35,1.24,73.35.71Z"/><path class="cls-2" d="M71.19,47.8c0-.11,0-.19,0-.3s0-.38,0-.61c0,.1,0,.2,0,.3a1,1,0,0,1,0-.32,1.28,1.28,0,0,0,0-.46l0,0,0,0-.07,0-.14-.07h0a11.72,11.72,0,0,0-2.31-.84h0l-.09,0h-.17c0,.22,0,.44,0,.66,0,.43-.11.86-.16,1.3,0,.09,0,.25,0,.25l-.18,1.09s-.06.27-.08.4a3,3,0,0,0-.1,1c0,.06,0,.13,0,.19s.13.39.17.59.12,0,.17,0,0-.06,0-.1,0-.2,0-.3-.09-.4.06-.59c0,0,0,0,0-.06a.76.76,0,0,0,0-.15,2.4,2.4,0,0,1,0,.37s.07.93.08.89c.06-.23,0-.84.07-.84s0,.18,0,.26h0l.12-1.16a1.38,1.38,0,0,1,0,.35.58.58,0,0,0,0,.32c.09-.81.15-1.63.28-2.43,0,.13,0,.25,0,.38,0,.35,0,.7-.08,1l-.09,1-.06,1a.58.58,0,0,1,0,.19.2.2,0,0,0,.08.24c.05,0,.1.08.1.15s0,0,0,0a0,0,0,0,0,0,0c0-.28.07-.56.1-.85l.06-.72,0,0c0,.32-.06.63-.06.94s0,.64,0,1c.16-.17.11-.39.25-.54a.65.65,0,0,1-.06.29c0,.06,0,.12,0,.18s.23.22.28.21a.21.21,0,0,0,.14,0,.29.29,0,0,1,.22-.12c.07,0,.09,0,.1-.1l0-.17a2.33,2.33,0,0,0,0-.28.55.55,0,0,1,0,.22c0,.16,0,.32,0,.48s0,.12,0,.13.12.21.14.21a.3.3,0,0,0,.12-.16c.09-.44.17-.88.26-1.33s.18-1,.28-1.52a.44.44,0,0,1,.09-.24,5.4,5.4,0,0,1-.09.58c0,.19-.07.39-.1.58a17.81,17.81,0,0,0-.2,1.79s.17-1.23.17-1.24c0-.21.1-.42.14-.63,0,.28-.06.55-.1.82l-.15,1a.22.22,0,0,0,.14.26c0-.13.08-.24.1-.37s0-.52.08-.78c0-.07,0-.14,0-.22A9.45,9.45,0,0,0,71,49.52c0-.08,0-.17,0-.26s0-.47,0-.71c0-.09-.06-.2,0-.27h0s0-.12,0-.19A2.71,2.71,0,0,0,71.19,47.8Zm-2.2,1v0h0Zm0-.14a.49.49,0,0,1,0-.37C69.13,48.39,69,48.5,69,48.62Z"/><path class="cls-2" d="M70.65,36.4h0Zm0,2.48h0Zm0,0h0Zm.13,3.79c0-.06,0-.12,0-.18a2.81,2.81,0,0,1,0-.29V39.38c0-.26,0-.52,0-.79,0,0,0-.7,0-1.28v0a1.77,1.77,0,0,0,0-.23c0-.19,0-.55,0-.61h0l0,0h0l-.31.14-.07,0-.27.12-.07,0-.17.07-.71.28-.55.17h0l-.11,0h0a1,1,0,0,0,0,.17c0,.07,0,.78,0,1.06,0,0,0,.33,0,.45s0,.48,0,.5c0,.19,0,.38,0,.57,0,.74,0,1.49,0,2.23,0,0,0,0,0,.06s0,.29,0,.29,0,.21,0,.24a1.3,1.3,0,0,1,0,.17.62.62,0,0,1-.06.19l0,0c.19,0,.37.06.56.07.36,0,.7.18,1.06.23a4.66,4.66,0,0,1,.89.3,3.22,3.22,0,0,0-.05-.65A2,2,0,0,1,70.83,42.67ZM68.7,39.74c0,.18,0,.45,0,.64-.08,0,0-.37,0-.42s0-.21,0-.31a3.93,3.93,0,0,1,.06-.48.35.35,0,0,0,0-.07,2.29,2.29,0,0,1,0-.31c0-.1,0-.26,0-.36a1.5,1.5,0,0,1,0-.22,1.3,1.3,0,0,1,0,.21.43.43,0,0,1,0,.11v.33a.64.64,0,0,0,0,.23A5,5,0,0,1,68.7,39.74Zm2,4s-.08-.18-.09-.21a.87.87,0,0,1,0-.28c0-.35,0-.7-.07-1.05,0-.2,0-.4,0-.61,0-.44,0-.89,0-1.34,0-.17,0-.85.06-1a5.09,5.09,0,0,0-.06-.71,3.43,3.43,0,0,0,0-.56,5.21,5.21,0,0,1,0-.55c0-.2,0-.41,0-.61a1.93,1.93,0,0,1,0-.24,19.83,19.83,0,0,0,0,2.28c0-.05,0-.22,0-.44v.14c0,.1,0,.2,0,.3,0,.29,0,.58,0,.86,0,.61,0,1.21,0,1.82l0,.51a2.89,2.89,0,0,0,0,.5,3.13,3.13,0,0,1,0,.53C70.65,43.23,70.76,43.72,70.75,43.76Zm0-4.88Z"/><path class="cls-2" d="M71.85,27.93c0,1-.3,1-.4,1.11a.7.7,0,0,1-.54.24c-.16,0-.37,0-.54,0s-.13,0-.18,0,0-.2,0-.29,0-.4.07-.61a4.74,4.74,0,0,0,.08-1.13c0,.09,0,.17-.06.25l-.09,1.13c0,.12,0,.24,0,.35a.51.51,0,0,0,0,.3s-.06,0-.09,0a6.81,6.81,0,0,1-.63-.41c-.1-.08-.37-.41-.43-.46a.19.19,0,0,1-.09-.22c0-.15,0-.31,0-.46,0-.4,0-.8.07-1.2,0,0,0-.37,0-.37s0-.41,0-.45c0-.22,0-.32,0-.3l1.9-.6c.07,0,.71-.27.94-.39a1.61,1.61,0,0,1,.33-.1s-.13.54,0,.67a2.88,2.88,0,0,1-.07.65,4.34,4.34,0,0,0-.07.63,2.28,2.28,0,0,1,0,.26c0,.09-.06.35-.08.47s-.07.68-.08.77A1.62,1.62,0,0,0,71.85,27.93Zm0-2.64c0,.22-.07.42-.1.61,0,0,0,0,0,.05,0,.21,0,.42-.07.63a1.61,1.61,0,0,0,0,.26s0,0,0-.05l.09-.69s0-.4,0-.45A.76.76,0,0,0,71.84,25.29Zm-.33,2.95c0-.06,0-.13,0-.24a1.67,1.67,0,0,0,0-.54,2.18,2.18,0,0,0-.07.27A2.31,2.31,0,0,0,71.51,28.24ZM69.44,26h0v1.66h0Zm2.19,1.27a.29.29,0,0,0,0-.27C71.6,27.13,71.6,27.13,71.63,27.3Z"/><path class="cls-2" d="M71.17,32.51s0,.1,0,.22a.36.36,0,0,1-.07.1h0a1.09,1.09,0,0,1-.47.18l-.7.16h-.68a.34.34,0,0,1-.31-.13l-.15-.15h0l-.08-.07c0-.12,0-.24,0-.24s.16.19.25.21a1.89,1.89,0,0,0,.75,0c.07,0,1.43-.53,1.43-.53Z"/><path class="cls-2" d="M71.16,48.29h0c-.08.07,0,.18,0,.27C71.13,48.47,71.15,48.32,71.16,48.29Zm-.3-2,.14.07.07,0,0,0A1.2,1.2,0,0,0,70.86,46.26Z"/><path class="cls-2" d="M84.87,30.55Zm1.59-.87Z"/><path class="cls-2" d="M90.27,41.84h0c-.18-.09-.2-.3-.32-.44s0,0,0-.06a.3.3,0,0,0,0-.13c0-.22,0-.44-.07-.65s-.05-.32-.08-.48c-.1.05-.12.05-.16,0a.75.75,0,0,1-.13-.38.8.8,0,0,0-.27-.51,1,1,0,0,1-.23-.44l0,0a1.09,1.09,0,0,0,.1.11s.06,0,.06,0a.38.38,0,0,0-.18-.41.49.49,0,0,1-.21-.32.61.61,0,0,0-.25-.44s0,0,0,0c-.07-.17-.24-.17-.38-.22s-.11,0-.06-.09.07-.11,0-.18,0,0,0-.06,0-.21-.12-.33l-.07.14a1.16,1.16,0,0,0-.18-.2.27.27,0,0,1-.09-.27c0-.11,0-.11-.11-.11l-.14,0H87.3s-.08,0-.07.08a.05.05,0,0,1,0,0s0,0,0,0,0,0,0,.06,0,0,0,0-.12-.21-.27-.22,0-.05-.06-.07,0-.07-.09-.09a.89.89,0,0,1-.3-.28s0,0,0-.06h.17c0-.16-.13-.21-.22-.29s-.12-.09-.2,0a.11.11,0,0,1-.15-.06,1.54,1.54,0,0,0-.49-.46,2.37,2.37,0,0,1-.28-.27c-.07-.08-.11-.19-.18-.27a.46.46,0,0,0-.16-.11.12.12,0,0,0-.1,0,.09.09,0,0,0,0,.12s.09.09.13.15,0,.09,0,.19a.23.23,0,0,0,0,.1l-.57-.38a.17.17,0,0,0-.22,0l-.14.06a.21.21,0,0,0,.09.17c.13.08.24.17.36.26l.12.06a.1.1,0,0,0,.13-.05c0-.08,0-.08.13-.07a.28.28,0,0,1,.21.08c0,.07.11.11.06.21s0,0,0,.08.2.15.24.28l0,0,.25.08a.25.25,0,0,1,0-.07.46.46,0,0,1,0-.1c.19.15.35.3.52.43a.36.36,0,0,1,.16.25.4.4,0,0,0,.26.35,1,1,0,0,1,.31.24l.08.07h.08s0,0,0-.08a.58.58,0,0,0,0-.14l.1.06s.06,0,.07,0,.08-.07.12,0a4.44,4.44,0,0,1,.49.73.06.06,0,0,1,0,.06c-.13.13,0,.23,0,.34a.32.32,0,0,1,.12.2s.06,0,.09.08a.42.42,0,0,0,0-.33.47.47,0,0,1,0-.12.52.52,0,0,1,.23.41.36.36,0,0,0,0,.15.54.54,0,0,1,.06.25c0,.11,0,.21,0,.31a.4.4,0,0,0,.3.42c0-.14-.07-.27,0-.41,0,.09.08.17.11.26a2.61,2.61,0,0,1,.16.61.71.71,0,0,0,.19.41s0,0,.06,0,.08,0,.11,0a.18.18,0,0,1,0,.1s-.05.07-.1,0,0,0-.06.05a.89.89,0,0,0,0,.1.48.48,0,0,0,0-.12c-.06,0-.07.08-.06.15l0,0h0l0,0-.11,0c0,.12.07.24,0,.35s-.15,0-.18-.13,0-.07-.08-.1h0c-.06.11-.09.22,0,.3s.14.14.22.2a.37.37,0,0,1,.14.3,3.62,3.62,0,0,1,0,.46.14.14,0,0,0,0,.06,2.64,2.64,0,0,0,.15.29c.08.13.08.28.19.39s0,.06,0,.09a1.55,1.55,0,0,0,.2.79s0,0,0,.06,0,.3-.15.43l-.06-.07,0,0v.11c0,.11,0,.22.12.27s0,.06.05.1a.88.88,0,0,1,0,.48.62.62,0,0,0-.07.19c0,.14-.11.2-.21.27s0,0,0-.05,0-.29.13-.41a.38.38,0,0,0,0-.16.07.07,0,0,0,0-.07c-.07,0-.19,0-.21.06s-.08.31-.12.47-.06.21-.09.33a.17.17,0,0,1,0-.2.67.67,0,0,1,.07-.18.2.2,0,0,0,0-.26.59.59,0,0,0-.22.58.39.39,0,0,1,0,.3s0,.07,0,.07.06,0,0,.09-.1.27-.16.41a.23.23,0,0,1-.11.11.58.58,0,0,0-.33.3.14.14,0,0,0,0,.16c.08.14.06.2-.09.3a.39.39,0,0,0-.1.08l-.19.27a1,1,0,0,1-.24.21,1,1,0,0,0-.52.58L87,48l.15,0,.1-.05.33-.24s.09-.1.14-.15l.15-.18c0-.06.09-.14.14-.19a1,1,0,0,1,.19-.12l0,0,.39-.39a.42.42,0,0,0,.14-.26s0-.07,0-.1,0-.11,0-.19l.19-.21s.05-.06.09,0,.08,0,.06.1a1.3,1.3,0,0,1-.08.17l-.14.25a.1.1,0,0,0,0,0c.05.07.09.08.11,0a2.07,2.07,0,0,0,.1-.33.55.55,0,0,1,.06-.18,2.31,2.31,0,0,0,.18-.35.62.62,0,0,0,0-.19.4.4,0,0,1,0-.32l.06.17a.5.5,0,0,0,.2-.47l-.19.21s-.09,0-.11,0a.19.19,0,0,1,.15-.23c.06,0,.08,0,.06-.06s0-.1,0-.15a.46.46,0,0,0,.08-.13.57.57,0,0,0,.08-.24,2.53,2.53,0,0,1,0-.28c0-.06,0-.06-.06,0l0,0s0-.07.06-.08a.09.09,0,0,0,.06-.1c0-.13,0-.25,0-.38a.79.79,0,0,1,.06-.34.36.36,0,0,0,0-.1c0-.11,0-.11.1-.13a.17.17,0,0,0,.12-.08.11.11,0,0,1,.1-.07A1.61,1.61,0,0,0,90.27,41.84Zm-3.9-6.21v0l0,0Zm0,0,0,0h0Zm2,10.59,0,0s0,0,0,0l0,0Zm.7-.72,0,0s-.08,0-.1-.09a.09.09,0,0,1,0-.13s0,0,.06,0a.32.32,0,0,1,.1.1S89.1,45.52,89.08,45.55Zm.8-3.26s0,.05,0,.05-.13.13-.13.24,0,0,0,.06,0,0,0,0,0-.21-.08-.31-.12-.19-.15-.29a.57.57,0,0,0-.11-.25.87.87,0,0,1,0-.19L89,40.93c.06,0,.15,0,.13-.1a2,2,0,0,0-.08-.43s0-.08,0-.09.06,0,.06,0,.19.2.28.28,0,0,.08,0h.06a.08.08,0,0,1,0,.06.93.93,0,0,0,.1.35.42.42,0,0,0,.09.19.15.15,0,0,1,0,.19s0,0-.06,0l-.18-.09c0,.18,0,.33,0,.47s.06.11.11.14.08,0,.11-.09C89.93,42,89.87,42.14,89.88,42.29Z"/><path class="cls-2" d="M86.89,48.35s-.07.08,0,.14l-.11.08a.39.39,0,0,1-.31-.08c-.14,0-.2-.09-.29-.13l-.66.4a.43.43,0,0,1-.12.05.31.31,0,0,1-.17,0h-.3a.73.73,0,0,0-.3.06l-.17,0h-.09a1.86,1.86,0,0,1-.74,0s-.07,0-.06-.07a.06.06,0,0,1,0,0h.17a1.09,1.09,0,0,0,.71-.14l0,0,0,0s0,0,0,0h0a1.86,1.86,0,0,0,.62.08h0l.07,0,0,0,.27-.14c.16-.09.31-.19.46-.29l0,0c0,.06.05.07.11,0a1.28,1.28,0,0,0,.38-.21.41.41,0,0,1,.33-.07,1,1,0,0,1-.09.15c0,.06,0,.1.06.1h0C86.91,48.25,86.93,48.27,86.89,48.35Z"/><path class="cls-2" d="M85.25,30.58l-.68.32h0a.81.81,0,0,0-.38,0l-.41,0-.25,0h-.21a0,0,0,0,1,0,0s0-.05,0-.05.16,0,.2-.14.11-.09.18-.11a1,1,0,0,1,.39,0,.61.61,0,0,0,.46,0s0,0,0,0,.23,0,.32-.08l.31,0h.07Z"/><path class="cls-2" d="M64.57,25.41l-.17,0h0Z"/><path class="cls-2" d="M80.59,31.07s-.25,0-.38.05l0,0c0-.05-.13-.09-.1-.15S80.59,31,80.59,31.07Z"/><path class="cls-2" d="M68.46,50.41a1.05,1.05,0,0,1,0-.5A1.05,1.05,0,0,1,68.46,50.41Z"/><path class="cls-2" d="M89.71,44.71l0-.06Z"/><path class="cls-2" d="M68.75,25.44h0Z"/><path class="cls-2" d="M85.36,22.8a.1.1,0,0,1,0,.09s0,.05,0,.05a.08.08,0,0,1-.07,0c-.07-.13-.14-.26-.2-.39a.36.36,0,0,0-.14-.16.11.11,0,0,0-.08,0s0,0,0,.06,0,.05.06.07a.36.36,0,0,1,.11.25A1.35,1.35,0,0,0,85,23c0,.12.14.23.1.38s0,0,0,.07.14.26.19.4a1,1,0,0,1,0,.3c0,.06,0,.15,0,.18s-.13-.27-.13-.27c0-.16-.07-.33-.11-.49a1.43,1.43,0,0,0-.14-.34,3.24,3.24,0,0,1-.19-.52h0c-.14-.19-.22-.42-.43-.54l0,0c0-.15-.18-.21-.16-.38a.5.5,0,0,1,.13,0c.07,0,.13.08.22,0l-.15-.18-.13-.14s-.06-.09,0-.14.12-.08.17-.05a.18.18,0,0,1,.07.05c0,.06.09.12.14.17a.34.34,0,0,1,.12.31.34.34,0,0,0,.11.28,1.25,1.25,0,0,0,.37.25.32.32,0,0,1,.12.11A.68.68,0,0,1,85.36,22.8Z"/><path class="cls-2" d="M75,21.79a2.09,2.09,0,0,0-.14.17s-.07.07-.07.1-.07.14-.14.19a1.18,1.18,0,0,1-.19.11c-.06,0-.13.06-.2,0a.18.18,0,0,0-.21.06s0,.08-.08.11-.23.22-.35.31a2.6,2.6,0,0,1-.4.23s0,0,0,0c-.3,0-.47.3-.7.46a1.22,1.22,0,0,1-.48.21.6.6,0,0,0-.22.09.17.17,0,0,1-.17,0l.12-.12.06,0a7,7,0,0,0,.94-.58A1.61,1.61,0,0,0,73,23a.29.29,0,0,1,.16-.07.88.88,0,0,0,.45-.23.81.81,0,0,0,.27-.25s.11-.07.17-.09.07,0,.11,0a.16.16,0,0,0,.14-.16c0-.19.17-.23.26-.32a.39.39,0,0,1,.31-.1S74.92,21.77,75,21.79Z"/><path class="cls-2" d="M82.49,20.31a.26.26,0,0,1-.19,0,.69.69,0,0,0-.29-.07.14.14,0,0,1-.12,0s-.08-.05-.13,0H81.7l0-.08L81.47,20h0c-.16.06-.33,0-.49.1a1.25,1.25,0,0,1-.65.18,1.15,1.15,0,0,1-.18,0c.11-.17.17-.22.32-.24a1,1,0,0,0,.39-.07s.07,0,.1,0h.15c.09,0,.16-.07.25,0s.05,0,.06,0a.27.27,0,0,1,.31,0s.1,0,.14.05.09,0,.1.07.13.11.22.09.27.06.38.15S82.55,20.29,82.49,20.31Z"/><path class="cls-2" d="M76.87,20.92a.44.44,0,0,1-.08.15,3.38,3.38,0,0,1-.79.57c-.08,0-.16.09-.25,0s0,0,0,0-.27.1-.4.16-.08,0-.11,0a.17.17,0,0,1-.11-.06s0-.06,0-.09a.65.65,0,0,1,.35-.2.14.14,0,0,1,.12,0c.07.09.12,0,.18,0l.3-.24s.07-.05.07-.08.11-.16.21-.2l.1-.05A.35.35,0,0,1,76.87,20.92Z"/><polygon class="cls-2" points="76.88 20.93 76.87 20.92 76.88 20.92 76.88 20.93"/><path class="cls-2" d="M84,21.25a.06.06,0,0,1-.09.06l-.21-.11a.38.38,0,0,0-.32-.1.27.27,0,0,1-.11-.05,2.17,2.17,0,0,1-.38-.48.08.08,0,0,1,.09-.13c.17,0,.35.06.41.27l0,0,.37.21a.88.88,0,0,1,0-.17c.22,0,.29.18.39.37L84,21.08Z"/><path class="cls-2" d="M79.22,20.11a.26.26,0,0,1,0,.09c-.09.05-.22,0-.26.17h0a3,3,0,0,0-.66.12,4.31,4.31,0,0,0-.49.11.23.23,0,0,1-.3-.16l.15-.08s.09,0,.12,0a.27.27,0,0,1,.33,0,.12.12,0,0,0,.08,0l.13,0c.12-.05.25,0,.36,0s.22-.11.35-.09.16,0,.2-.09,0,0,.06,0A.31.31,0,0,1,79.22,20.11Z"/><path class="cls-2" d="M82.82,29.35c-.06.1-.09.17-.21.18a.94.94,0,0,0-.28.1c-.14.05-.24,0-.31-.16A3.51,3.51,0,0,1,82.82,29.35Z"/><polygon class="cls-2" points="76.88 20.92 76.88 20.92 76.88 20.93 76.88 20.92"/><path class="cls-2" d="M77.3,20.74a.93.93,0,0,1-.42.18.57.57,0,0,1,.11-.33.28.28,0,0,1,.34-.13l0,.05c-.08.09-.08.09,0,.18A.07.07,0,0,1,77.3,20.74Z"/><path class="cls-2" d="M73.46,25h-.41l-.39,0a1,1,0,0,0-.17,0A1.48,1.48,0,0,1,73.46,25Z"/><path class="cls-2" d="M84.35,18.36a.67.67,0,0,1-.43-.19C84.07,18.17,84.15,18.21,84.35,18.36Z"/><path class="cls-2" d="M83.68,18.06l-.15,0-.17,0-.14-.08A.74.74,0,0,1,83.68,18.06Z"/><path class="cls-2" d="M83.86,30.44l0,0-.17,0,0,0,.17-.08S83.84,30.42,83.86,30.44Z"/><path class="cls-2" d="M84.57,29s0,0,0,0l-.07,0a.34.34,0,0,1,0-.1l0,0A.11.11,0,0,1,84.57,29Z"/><path class="cls-2" d="M82.93,31.29l-.42.05a.22.22,0,0,1,0-.08A1.23,1.23,0,0,1,82.93,31.29Z"/><path class="cls-2" d="M79.76,19.79c0,.08-.07.07-.11.06l-.17-.06Z"/><path class="cls-2" d="M75,20l0,0s0,0,0,0a.3.3,0,0,1-.1-.07.17.17,0,0,1,0-.05S75,20,75,20Z"/><path class="cls-2" d="M84.81,18.64l-.16-.1C84.81,18.52,84.81,18.52,84.81,18.64Z"/><polygon class="cls-2" points="79.12 30.64 79.13 30.64 79.12 30.64 79.12 30.64"/><path class="cls-2" d="M79.17,30.67s0,0,0,0a0,0,0,0,1,0,0h0Z"/><path class="cls-2" d="M79.34,30.71l0,0,0,0s0,0,0,0Z"/><path class="cls-2" d="M79.42,30.75h0Z"/><path class="cls-2" d="M79.12,30.64Z"/><path class="cls-2" d="M77.08,34.32a1.61,1.61,0,0,0-.58,0,.85.85,0,0,1-.39,0,.74.74,0,0,0-.49.07,2.56,2.56,0,0,0-.35.22.45.45,0,0,1-.34,0l0,0h0a.06.06,0,0,1,0-.1l.08-.06s0,0,0,0l0,0c-.07,0-.16,0-.17.09a1.21,1.21,0,0,1-.32.11s-.09,0-.12,0a.62.62,0,0,1-.37.11.37.37,0,0,0-.29.07s-.11,0-.17.06l-.17.09,0,0c-.08.05-.18,0-.25,0a.35.35,0,0,1-.22.12c-.08,0-.15,0-.22,0l-.27.07a1.79,1.79,0,0,1-.39.13h-.07l0,0h0l0,0-.1.06,0,0-.07.06c-.06.06-.12.14-.23.09s0,0-.06,0-.17.08-.31.08c.11-.09.14-.22.3-.19a.22.22,0,0,0,.13-.06.33.33,0,0,0,0-.17s-.06,0-.09-.06a.07.07,0,0,1,0-.08h0c.06,0,.13-.11.19-.11a.54.54,0,0,0,.33-.13c.1-.06.18-.11.3-.05a.32.32,0,0,0,.28,0,.16.16,0,0,0,.07-.07c0-.11.11-.14.21-.15a.94.94,0,0,1,.29,0,.47.47,0,0,0,.34-.1.93.93,0,0,1,.39-.15l.24-.09a1.08,1.08,0,0,1,.53-.12.44.44,0,0,0,.25-.06.38.38,0,0,1,.19,0l.32,0-.11.06a.73.73,0,0,0-.05.09s.08,0,.1,0c.18-.14.41-.14.61-.24s.21,0,.3-.1.07,0,.1,0a.67.67,0,0,0,.52,0l.08,0a.1.1,0,0,1,.1.11.17.17,0,0,0,0,.07s0,.08.08.08h.08a.26.26,0,0,1,.13.06S77.17,34.34,77.08,34.32Z"/><path class="cls-2" d="M78.08,43.2A.37.37,0,0,0,78,43a1.23,1.23,0,0,1-.3-.38l.13,0c-.18-.09-.3-.25-.49-.3a.46.46,0,0,1-.16-.15,1.65,1.65,0,0,0-.48-.43c-.21-.12-.43-.22-.64-.33l-.15,0,.1.16a4.9,4.9,0,0,0-.56-.13c-.08,0-.14-.07-.22-.1a.38.38,0,0,0-.17-.08c-.19,0-.29-.14-.42-.24a.5.5,0,0,1,.17,0L75,41a.07.07,0,0,0,.06,0,.06.06,0,0,0,0-.06.15.15,0,0,0,0-.06.61.61,0,0,0-.37-.12.77.77,0,0,1-.3,0s-.08,0-.08.08a.18.18,0,0,0,.11.17c.18.09.32.26.53.29,0,0,0,0,0,.06s0,0,0,.06l-.12,0a.22.22,0,0,0,.26.16.8.8,0,0,1,.26,0,2.09,2.09,0,0,1,.36.07.74.74,0,0,0,.36.09c-.07.18,0,.24.09.31a.9.9,0,0,0,.28.13.36.36,0,0,1,.26.18c0,.07.12.11.15.18s.3.13.45.19.1,0,.15-.05.08,0,.09.07,0,.11,0,.14l.39.52a.25.25,0,0,0,.31.11A1.82,1.82,0,0,1,78.08,43.2Zm-1.74-1.47c0,.08-.09.07-.15,0l-.14-.08a.18.18,0,0,1,.16-.09.32.32,0,0,1,.24.14Zm.49.54a0,0,0,0,1,0,0h0s0,0,0,0Zm.15.09,0,0a.05.05,0,0,0,0,0l0,0Z"/><path class="cls-2" d="M79.91,44.23c-.08,0-.15-.06-.09-.17s0-.05,0-.07l-.09-.07a.16.16,0,0,0-.16-.06h0a.33.33,0,0,1-.34-.09l-.27-.22a.46.46,0,0,0-.13-.08l-.31-.16a.3.3,0,0,0-.16-.05s-.08.06,0,.09a.36.36,0,0,0,.12.08c.06,0,0,.08,0,.13h.13s0,.07,0,.07-.1,0-.13-.08-.09,0-.09.07a.44.44,0,0,1,0,.1c-.13,0-.26,0-.36.07l0,0a1.06,1.06,0,0,0,.25.09c.1,0,.14.12.21.12s.09,0,.13.08a.4.4,0,0,0,.12.11.28.28,0,0,0,.28,0l.12,0c.1,0,.14,0,.2.09a.71.71,0,0,0,.38.3.11.11,0,0,0,.13,0c.08-.07.17-.11.27,0s.07,0,.12,0A.58.58,0,0,0,79.91,44.23Zm-1.36-.67-.07-.08.1,0s0,0,0,0Z"/><path class="cls-2" d="M88.7,40.28c-.11-.16-.25-.26-.23-.46a.48.48,0,0,0-.07-.23,2.1,2.1,0,0,1-.29-.58.91.91,0,0,0-.07-.14c0-.06-.05-.1-.12-.1a.12.12,0,0,1-.12-.08c0-.15-.15-.29-.1-.46s0-.14-.08-.21a4.62,4.62,0,0,1-.45-.64.91.91,0,0,1,0-.16l.19.1a.06.06,0,0,0,.06,0s0-.05,0-.06a.56.56,0,0,0-.09-.17,1.64,1.64,0,0,0-.14-.22s0,0,0,0,.14-.11.24,0a1.53,1.53,0,0,1,.14.21.15.15,0,0,1,0,.11c-.08.15,0,.27.08.38a.67.67,0,0,1,.09.26,3.11,3.11,0,0,0,0,.32.92.92,0,0,0,.18.3,2.21,2.21,0,0,1,.23.36c0,.11.13.21.19.32a1.73,1.73,0,0,1,.19.28.33.33,0,0,1,0,.17,1.61,1.61,0,0,0,.07.43A.45.45,0,0,1,88.7,40.28Z"/><path class="cls-2" d="M83.75,34.12s-.09,0-.17,0a1.25,1.25,0,0,0-.36-.15l0,0c-.06-.13-.18-.14-.3-.17a1.92,1.92,0,0,1-.35-.18l-.41-.2c-.07,0-.14-.06-.14-.16s0,0,0-.07,0-.06,0-.09l.1,0h0c.07,0,.14,0,.21.08l.19.14a.44.44,0,0,0,.29.14,1,1,0,0,1,.27.09s.1,0,.11.09.18.17.26.26a.2.2,0,0,0,.13.06c.07,0,.1,0,.15.08S83.76,34.05,83.75,34.12Z"/><path class="cls-2" d="M74,41.12a.68.68,0,0,1-.42-.08.66.66,0,0,0-.18,0s.07.07.07.09,0,.07,0,.07h-.17a.14.14,0,0,1-.09-.09s0-.06.08-.07,0,0,0-.08a.41.41,0,0,0-.19-.18.11.11,0,0,1-.07-.13h0l.08,0h.12a.37.37,0,0,1,.48,0c.11.09.2.2.32.29s0,.07.06.11S74.06,41.11,74,41.12Z"/><path class="cls-2" d="M80.29,32.65l-.12,0h-.55a.42.42,0,0,1-.29-.07.55.55,0,0,0-.25-.07l-.39,0c-.08,0-.13-.06-.19-.16l.32-.06.23-.05a.68.68,0,0,1,.46.12c.08,0,.14.09.24.06a1.65,1.65,0,0,1,.52.2S80.28,32.63,80.29,32.65Z"/><path class="cls-2" d="M80,48.18a.12.12,0,0,1-.08,0l-.24-.11L79.43,48h0a2.07,2.07,0,0,0-.39-.33s0,0,0-.06a.15.15,0,0,1,.06,0,.32.32,0,0,1,.26.15.78.78,0,0,0,.32.25l.35.17C80,48.09,80,48.14,80,48.18Z"/><path class="cls-2" d="M83.19,49.16a.19.19,0,0,1-.19,0s-.07,0-.11,0a.43.43,0,0,1-.38-.21s0,0,0,0H83a.86.86,0,0,1,.26.21S83.24,49.15,83.19,49.16Z"/><path class="cls-2" d="M72.7,40.85l-.1.06a2,2,0,0,0-.37.12.75.75,0,0,1-.38.07c-.06,0-.13,0-.22-.07.13-.09.21-.16.34-.11a.5.5,0,0,0,.17,0A1.13,1.13,0,0,1,72.7,40.85Z"/><path class="cls-2" d="M81,33.09h-.19a.24.24,0,0,1-.23-.1.24.24,0,0,0-.23-.09.36.36,0,0,1-.28,0h.77C81,32.89,81,32.9,81,33.09Z"/><path class="cls-2" d="M79.11,34.21l0,0a1.55,1.55,0,0,1-.71-.1.88.88,0,0,1-.17-.14.22.22,0,0,1,.32,0,.16.16,0,0,0,.17.06.94.94,0,0,1,.4.09S79.11,34.19,79.11,34.21Z"/><path class="cls-2" d="M73,40.51a.16.16,0,0,1,0,.11h-.26c-.08,0-.17,0-.17-.12s-.06-.08-.1-.12c.13-.11.24,0,.35,0a.07.07,0,0,1,0,.05s0,.06,0,.06A.12.12,0,0,1,73,40.51Z"/><polygon class="cls-2" points="73.01 40.62 73.01 40.62 73.01 40.62 73.01 40.62"/><path class="cls-2" d="M76.82,45.74s0,0-.06,0a1.36,1.36,0,0,1-.36-.27,2.09,2.09,0,0,0-.14-.17.15.15,0,0,1,.17,0c.14.11.26.24.39.36A.06.06,0,0,1,76.82,45.74Z"/><path class="cls-2" d="M82.38,48.92a.49.49,0,0,1-.44,0l-.38-.1a.72.72,0,0,1,.38,0A3.11,3.11,0,0,0,82.38,48.92Z"/><path class="cls-2" d="M77.64,46.38l-.15-.09-.12-.08L77.19,46a.47.47,0,0,1,.16,0,.14.14,0,0,1,.11,0A.86.86,0,0,1,77.64,46.38Z"/><path class="cls-2" d="M89,42.56a.73.73,0,0,1-.16-.41s0-.06.06-.08,0,0,.07,0A.4.4,0,0,1,89,42.56Z"/><path class="cls-2" d="M78.19,46.78l-.22,0a.32.32,0,0,1-.29-.27,3.17,3.17,0,0,1,.45.23S78.16,46.75,78.19,46.78Z"/><path class="cls-2" d="M77.87,34.09c-.05,0-.08.09-.1.08a.36.36,0,0,0-.23,0s-.08-.05-.1-.08,0-.07,0-.07S77.65,34,77.87,34.09Z"/><path class="cls-2" d="M89,38c-.11,0-.13-.11-.16-.17a.72.72,0,0,1,0-.27A.66.66,0,0,1,89,38Z"/><path class="cls-2" d="M87.33,35.88c-.06,0-.07,0-.09-.06a1.07,1.07,0,0,1-.14-.16s0-.06,0-.11.08,0,.09.05a1.74,1.74,0,0,1,.11.18S87.34,35.87,87.33,35.88Z"/><path class="cls-2" d="M80.34,34.34v0a.3.3,0,0,1-.13,0,1.77,1.77,0,0,1-.17-.12,0,0,0,0,1,0,0l0,0h0Z"/><path class="cls-2" d="M78.88,47.48a.36.36,0,0,1-.15-.28C78.82,47.25,78.82,47.25,78.88,47.48Z"/><path class="cls-2" d="M87.5,36.1l-.07,0h-.09l0-.06.06,0Z"/><path class="cls-2" d="M74,34.91a.55.55,0,0,1-.34.07A.36.36,0,0,1,74,34.91Z"/><path class="cls-2" d="M81.47,35.1h-.08l0,0,0,0h.05A.1.1,0,0,1,81.47,35.1Z"/><path class="cls-2" d="M69.39,36.89h.06l0,0,0,0Z"/><polygon class="cls-2" points="69.45 36.88 69.45 36.88 69.45 36.88 69.45 36.88"/><path class="cls-2" d="M86.5,29.41h0s.1-.14.13-.13S86.55,29.42,86.5,29.41Z"/><path class="cls-2" d="M86.64,29.28s0-.06,0-.05S86.68,29.29,86.64,29.28Z"/><path class="cls-2" d="M89.52,41.62l0,0h0l-.09-.14a.12.12,0,0,1,0-.08s.08,0,.09,0A.87.87,0,0,1,89.52,41.62Z"/><path class="cls-2" d="M88.53,25.38a4.88,4.88,0,0,0-.07-.7s0,.13,0,.21h0c0,.18-.06.35-.09.52s-.12.63-.2.94-.14.47-.21.71a.32.32,0,0,1-.13.21c.07-.19,0-.39.05-.57a2,2,0,0,1,.07-.54A.65.65,0,0,1,88,26a.39.39,0,0,0,.06-.25c0-.11,0-.22,0-.33s0-.08,0-.09l0,.05c0,.11-.07.23-.21.25s-.05,0-.06.07a1.45,1.45,0,0,0-.09.22c0,.08,0,.1-.12.07s-.15.05-.18.13-.12.38-.19.56a.27.27,0,0,0,0,.09.24.24,0,0,0,.06.11s.07,0,.1,0h.06c0,.11-.09.21-.14.3s0,.1-.08.11-.16.11-.25.16a.73.73,0,0,0-.28.3,1.43,1.43,0,0,1-.12.21.52.52,0,0,1-.31.23.56.56,0,0,0-.34.17.93.93,0,0,0-.23.34.32.32,0,0,1-.34.23.59.59,0,0,0-.31.09l-.33.2c-.1.06-.19.12-.18.25s0,0-.05.08,0,0-.09,0a.26.26,0,0,0-.22-.09l-.41.13c.15.17.12.24-.07.34a.19.19,0,0,0-.1.1s0,.07-.07.07a.83.83,0,0,1-.22,0s-.06-.07,0-.08.15-.22.3-.23,0,0,0,0,0,0,0,0-.12,0-.09-.08a.21.21,0,0,0-.36,0,.71.71,0,0,1-.14.1s-.11,0-.14.06a.73.73,0,0,1-.34.14.8.8,0,0,0-.21.05c-.06,0-.1,0-.15,0s-.18,0-.23-.12h0a.92.92,0,0,0-.33,0,.18.18,0,0,0-.1.07.22.22,0,0,0,0,.11l.17.05c-.23.18-.19.11-.35,0s0,0,0-.05,0-.13-.07-.14a.39.39,0,0,1-.19-.1.2.2,0,0,0-.26,0c-.08,0-.08.12,0,.17l.09,0a.06.06,0,0,1,0,.09.64.64,0,0,1-.41,0c-.08,0-.22,0-.2-.19a.09.09,0,0,0,0-.05l-.29-.14s-.08,0-.08.05,0,.08,0,.09a1.42,1.42,0,0,0,.18.08l.14.1h-.31a.21.21,0,0,1-.15-.07,1,1,0,0,0-.38-.17,1.36,1.36,0,0,1-.44-.08.14.14,0,0,0-.09,0,.23.23,0,0,1-.29-.06.52.52,0,0,0-.26-.12,2,2,0,0,0-.24,0,.43.43,0,0,1-.3-.11.38.38,0,0,0-.28-.05l0,.06c.2.15.4.3.61.43s.44.24.66.35.17.05.25,0a.27.27,0,0,0,.08-.1A.3.3,0,0,1,79,30a.38.38,0,0,0,.34.15,2,2,0,0,1,.35,0s.07,0,.13.07l-.39.11c0,.12.1.16.23.14s.09,0,.14,0a2.3,2.3,0,0,0,.28.06s.06,0,0-.07a.17.17,0,0,1,0-.08,1.18,1.18,0,0,0,.54.12l.26,0a3.49,3.49,0,0,0,1.07,0s.06,0,.1,0,0,.05,0,.08,0,.18.12.23a.93.93,0,0,0,.47.06.77.77,0,0,1,.3,0h.2a.06.06,0,0,0,0-.09c-.06-.07-.11-.14-.22-.12l-.13,0s0,0,0,0a.08.08,0,0,1,0,0l.11,0,.4-.1c0-.07,0-.14,0-.19l.32-.15c.07,0,.12-.06.13-.14a.12.12,0,0,1,.15-.09l.33.06c-.19.08-.2.09-.12.32.16-.08.32,0,.48,0a.09.09,0,0,1,.07.05c0,.15.12.13.22.12s.09-.08.14-.08.16-.06.2-.15,0-.05,0-.08a.09.09,0,0,1,.13,0s.06.06.11.1.16-.08.23-.13.26-.18.4-.26l.06,0h0l.1,0h0l.06,0,0,0h0l0,0h0l0,0a1.74,1.74,0,0,0,.05-.22s0,0,0-.05h0a.08.08,0,0,0-.07,0l0,0-.06.05-.33.34h0a.05.05,0,0,1,0,0,.06.06,0,0,1,0,0,.58.58,0,0,0,.19-.35,1,1,0,0,1,.14-.22.43.43,0,0,0,.09-.1.16.16,0,0,1,.16-.11.15.15,0,0,0,.17-.1c0-.06.09-.1.13-.14a0,0,0,0,1,0,0s0,0,0,0a1.57,1.57,0,0,0-.2.46,0,0,0,0,0,.07,0,.35.35,0,0,1,.25-.1.69.69,0,0,0,.13-.11,5.38,5.38,0,0,0,.71-1.17,1.28,1.28,0,0,0,.11-.33c0-.09,0-.2.12-.24a.15.15,0,0,0,0-.08l.15-.59c0-.14.08-.28.11-.42s.09-.3.12-.46,0-.06,0-.09,0-.09,0-.14a.5.5,0,0,1,0-.12Zm-8.84,5s0,0,0,0a.07.07,0,0,1,0-.06c.06,0,.11,0,.13.07Zm3-.07a.35.35,0,0,1-.37,0s-.11,0-.16-.05a.06.06,0,0,1-.06-.05.18.18,0,0,1,0-.09l.06,0,.45-.08c.12,0,.15,0,.14.13S82.78,30.31,82.71,30.35Zm2.32-1,.1,0s.1,0,.09.05-.07.05-.11.05H85a.07.07,0,0,1,0-.07A.06.06,0,0,1,85,29.31Zm.47.18h0c0,.05,0,.1-.06.13a3.79,3.79,0,0,0-.34.45s-.1.06-.14.09-.11,0-.16,0-.09,0-.12,0a.29.29,0,0,1-.1-.07c0-.1-.09-.13-.13-.19s.24-.21.39-.26.06,0,.08,0a.37.37,0,0,0,.27,0,1.57,1.57,0,0,1,.31-.08h0v0S85.51,29.49,85.5,29.49Zm1-.73s0,0,0,.06a.65.65,0,0,0-.29.14s-.07,0-.07,0-.11-.1-.22-.1a.78.78,0,0,1,.22-.15.79.79,0,0,0,.31-.2.11.11,0,0,1,.08,0s.06,0,.06,0A1.45,1.45,0,0,1,86.5,28.76Zm1-.73c-.14.18-.19.41-.38.56l0,0a.62.62,0,0,1-.26-.27c.11-.14.21-.29.32-.42s0-.06.09,0,0,.05,0,.05.09.09.14,0h.07S87.52,28,87.51,28Z"/><path class="cls-2" d="M69.32,37a.47.47,0,0,1-.09.06c-.09,0-.2,0-.28.11s-.11,0-.17,0a1.79,1.79,0,0,0-.51.07h-.12c.15-.11.29-.08.41-.12a2.09,2.09,0,0,1,.36-.08l.37-.09Z"/><path class="cls-2" d="M69.89,36.05a1.53,1.53,0,0,1-.36.29c-.2,0-.37.1-.57.11l0,0a.68.68,0,0,1,.36-.26l.39-.12Z"/><path class="cls-1" d="M73.55,9.14a3.13,3.13,0,0,1,.44.1,14.14,14.14,0,0,1,1.55.66c.34.17.69.33,1,.47a6.74,6.74,0,0,0,1.71.34l.77,0a7.09,7.09,0,0,0,1.22-.1l.39-.05a4.44,4.44,0,0,0,.74-.18A8.26,8.26,0,0,0,82.73,10,8.4,8.4,0,0,0,84,9.25a1.32,1.32,0,0,1,.2-.12s0,0,.06,0a3,3,0,0,1,.38-.33c.11-.11.24-.2.36-.3s.13-.26.21-.38a1,1,0,0,1,.27-.63c.19-.24.35-.52.54-.77A6,6,0,0,0,86.42,6a5.53,5.53,0,0,1,.58-1,5.32,5.32,0,0,1,1.77-1.53,2.9,2.9,0,0,1,1-.3A9.65,9.65,0,0,1,91.08,3a4.31,4.31,0,0,0,1.42-.27l1.15-.42a7.83,7.83,0,0,1,1.91-.46,4,4,0,0,1,1.33.1A2.08,2.08,0,0,1,98.23,3a1.93,1.93,0,0,1,.23.7.88.88,0,0,1-.16.67c-.09.11-.18.23-.28.33l-1.1,1.08A2,2,0,0,0,96.31,7l0,.1c-.13.39-.24.78-.38,1.17a8,8,0,0,1-.32.81,6.78,6.78,0,0,1-.85,1.41,6,6,0,0,1-.77.83c-.12.11-.22.23-.35.33l-.64.46a3.84,3.84,0,0,1-.35.18,3,3,0,0,1-.73.26,3.28,3.28,0,0,1-.94,0l-.78-.09a2.6,2.6,0,0,0-1.66.34c-.44.25-.84.54-1.25.83a16.67,16.67,0,0,1-1.87,1.22,7.64,7.64,0,0,1-1,.46c-.32.11-.63.25-.95.34a9.85,9.85,0,0,1-1.88.32,17.57,17.57,0,0,1-1.92,0l-.72-.06h-.22c-.31,0-.62-.06-.93-.11s-.61-.11-.92-.18L76,15.45a1.66,1.66,0,0,1-.21-.06s0,0-.08,0c-.24,0-.46-.13-.69-.17s-.7-.16-1-.23l-.9-.17c0-.16,0-.32.05-.48s0-.48.07-.72l.06-.58,0-.35c0-.13,0-.26,0-.39l.06-1.08v-.06a5.05,5.05,0,0,0,.11-1A6.16,6.16,0,0,0,73.55,9.14Z"/><path class="cls-1" d="M74.1,48.43a1.43,1.43,0,0,1-.19.44,4,4,0,0,1-.38.48,1.76,1.76,0,0,1-.52.43,3.31,3.31,0,0,1-.69.2,1.75,1.75,0,0,1-.32,0,5.48,5.48,0,0,1-1-.42c0-.08,0-.17,0-.26s0-.47,0-.71c0-.09-.06-.2,0-.27h0l.34.19.28.17.3.16.15,0h.28a.42.42,0,0,0,.41-.4.66.66,0,0,0-.06-.34,1.74,1.74,0,0,0-.1-.19l0-.05a2.1,2.1,0,0,0-.32-.46h0a3.89,3.89,0,0,0-1.29-1l0,0-.07,0-.14-.07h0a11.72,11.72,0,0,0-2.31-.84h0l-.09,0H68l-.88-.22-.58-.15h-.12l0,0a2.53,2.53,0,0,1-1.15-.7h0a2.16,2.16,0,0,1-.47-1.07h0a2.55,2.55,0,0,1,.09-1.44v0l0,0v0l.08-.14a5.43,5.43,0,0,1,.63-.64h0c.32-.23.73-.48,1.26-.81h0l.2-.11c.08-.05.21-.1.32-.16s.26-.09.37-.13a2.66,2.66,0,0,1,.67-.13h.09s0,.07,0,.09c0,.19,0,.38,0,.57,0,.74,0,1.49,0,2.23,0,0,0,0,0,.06a3.93,3.93,0,0,0-.48.06.73.73,0,0,0-.56.46.18.18,0,0,0,.1.22,2.33,2.33,0,0,0,.36.08,1.69,1.69,0,0,0,.45.07l0,0c.19,0,.37.06.56.07.36,0,.7.18,1.06.23a4,4,0,0,1,.83.27,7.34,7.34,0,0,1,1.93,1.27,2.46,2.46,0,0,1,.27.34l.32.47A6.75,6.75,0,0,1,74,47,2.07,2.07,0,0,1,74.1,48.43Z"/><path class="cls-1" d="M68.06,47.56a10.23,10.23,0,0,1-.2,1.08,10.92,10.92,0,0,0-1.15-.09,1.81,1.81,0,0,0-.4,0c-.2.07-.21,0-.4.13a2.73,2.73,0,0,0-.44.2,1.51,1.51,0,0,0-.35.27s0,.06-.06.06a.17.17,0,0,1-.12,0,.16.16,0,0,1,0-.1,1.87,1.87,0,0,1,.2-.29,3.73,3.73,0,0,1,1.44-1.08,3.05,3.05,0,0,1,1.23-.26Z"/><path class="cls-3" d="M89.7,44.73l-.18.21s-.09,0-.11,0a.19.19,0,0,1,.15-.23c.06,0,.08,0,.06-.06s0-.1,0-.15a.46.46,0,0,0,.08-.13.57.57,0,0,0,.08-.25,2.44,2.44,0,0,1,0-.27c0-.06,0-.06-.06,0l0,0s0-.07.06-.08a.09.09,0,0,0,.06-.1c0-.13,0-.25,0-.38a.79.79,0,0,1,.06-.34.36.36,0,0,0,0-.1c0-.11,0-.11.1-.13a.15.15,0,0,0,.12-.08.1.1,0,0,1,.1-.07A6.39,6.39,0,0,1,90,44c-.07.23-.15.46-.23.69l0,.06S89.71,44.73,89.7,44.73Z"/><path class="cls-1" d="M86.31,29.85l-.65.47c-.13.1-.27.17-.41.26h-.07l-.31,0h0c0-.08.09-.08.14-.08s.16-.06.2-.15,0-.05,0-.08a.09.09,0,0,1,.13,0s.06.06.11.1.16-.08.23-.13.26-.18.4-.26l.06,0h0l.1,0Z"/><polygon class="cls-3" points="86.5 29.41 86.5 29.41 86.5 29.41 86.5 29.41"/><path class="cls-1" d="M87,29.14a2,2,0,0,1-.23.28,3.07,3.07,0,0,1-.26.25h-.05a1.74,1.74,0,0,0,.05-.22s0,0,0-.05.15-.09.13-.13h0s0,0,0-.05h0a0,0,0,0,0,.07,0A.35.35,0,0,1,87,29.14Z"/><path class="cls-3" d="M88.79,46.36s0-.08,0-.11,0-.11,0-.19.12-.14.18-.21.05-.06.09,0,.08,0,.06.1a1.3,1.3,0,0,1-.08.17l-.14.25A.11.11,0,0,1,88.79,46.36Z"/><path class="cls-3" d="M89.43,45.35a.4.4,0,0,1,0-.32l.06.17Z"/><path class="cls-3" d="M88.58,24.12h0a.62.62,0,0,1,0-.38Z"/><path class="cls-1" d="M64.81,25.42c-.07.06-.14,0-.21,0C64.71,25.32,64.75,25.32,64.81,25.42Z"/><path class="cls-1" d="M86.42,29.72h0l0,0h0S86.46,29.73,86.42,29.72Z"/><path class="cls-1" d="M86.38,29.76h0v0l0,0Z"/><path class="cls-1" d="M86.38,29.77h0l0,0h0S86.42,29.78,86.38,29.77Z"/><path class="cls-3" d="M69.12,25.34h-.06l0-.05Z"/><path class="cls-1" d="M85.49,29.49c0,.05,0,.11-.06.14a3.79,3.79,0,0,0-.34.45s-.1.06-.14.09-.11,0-.16,0-.09,0-.12,0a.29.29,0,0,1-.1-.07c0-.1-.09-.13-.13-.19s.24-.21.39-.26.06,0,.08,0a.37.37,0,0,0,.27,0,1.18,1.18,0,0,1,.31-.08Z"/><polygon class="cls-3" points="86.5 29.41 86.5 29.41 86.5 29.41 86.5 29.41"/><path class="cls-1" d="M86.88,28.77a1.57,1.57,0,0,0-.2.46h0s-.05,0,0,.05h0s-.13.09-.13.13-.12,0-.17.07l-.33.34h0a.05.05,0,0,1,0,0,.06.06,0,0,1,0,0,.58.58,0,0,0,.19-.35,1,1,0,0,1,.14-.22.43.43,0,0,0,.09-.1.16.16,0,0,1,.16-.11.15.15,0,0,0,.17-.1c0-.06.09-.1.13-.14a0,0,0,0,1,0,0S86.89,28.76,86.88,28.77Z"/><path class="cls-1" d="M86.85,28.34c.11-.14.21-.29.32-.42s0-.06.09,0,0,.05,0,.05.09.09.14,0h.07s0,0,0,.05c-.14.18-.19.41-.38.56l0,0A.62.62,0,0,1,86.85,28.34Z"/><path class="cls-1" d="M82.81,30.21c0,.07,0,.1-.1.14a.35.35,0,0,1-.37,0s-.11,0-.16-.05a.06.06,0,0,1-.06-.05.18.18,0,0,1,0-.09l.06,0,.45-.08C82.79,30.06,82.82,30.1,82.81,30.21Z"/><path class="cls-1" d="M85.87,28.83a.78.78,0,0,1,.22-.15.79.79,0,0,0,.31-.2.11.11,0,0,1,.08,0s.06,0,.06,0a1.45,1.45,0,0,1,0,.28s0,0,0,.06a.65.65,0,0,0-.29.14s-.07,0-.07,0S86,28.83,85.87,28.83Z"/><path class="cls-1" d="M85.05,29.44h0a.07.07,0,0,1,0-.07.06.06,0,0,1,0-.05l.1,0s.1,0,.09.05-.07.05-.11.05Z"/><path class="cls-1" d="M79.81,30.41h-.12l0,0a.07.07,0,0,1,0-.06C79.74,30.31,79.79,30.32,79.81,30.41Z"/><path class="cls-1" d="M85.49,29.5l0,0s0,0,0,0Z"/><path class="cls-1" d="M89.57,41.32a3.28,3.28,0,0,0,0,.47c0,.05.06.11.11.14s.08,0,.11-.09c.11.14.05.3.06.45s0,.05,0,.05-.13.13-.13.24,0,0,0,.06,0,0,0,0,0-.21-.08-.31-.12-.19-.15-.29a.57.57,0,0,0-.11-.25.87.87,0,0,1,0-.19L89,40.93c.06,0,.15,0,.13-.1a2,2,0,0,0-.08-.43s0-.08,0-.09a.1.1,0,0,1,.07,0c0,.17.18.2.27.28s0,0,.08,0h.06a.08.08,0,0,1,0,.06.88.88,0,0,0,.1.35.42.42,0,0,0,.09.19.15.15,0,0,1,0,.19s0,0-.06,0Zm0,.3a.87.87,0,0,0-.07-.17s-.06,0-.09,0a.12.12,0,0,0,0,.08l.09.14h0Z"/><path class="cls-1" d="M89.05,45.58s-.08,0-.1-.09a.09.09,0,0,1,0-.13s0,0,.06,0a.32.32,0,0,1,.1.1s0,.08,0,.11Z"/><path class="cls-1" d="M88.39,46.24v0l0,0s0,0,0,0Z"/><path class="cls-3" d="M89,40.22l0,0h0l0,0Z"/><path class="cls-1" d="M86.37,35.65l0,0h0l0,0Z"/><path class="cls-3" d="M86.37,35.65l0,0h0v0Z"/><polygon class="cls-3" points="74.81 34.55 74.81 34.55 74.81 34.55 74.81 34.55"/><path class="cls-1" d="M76.45,41.73h-.1c0,.08-.1.07-.16,0l-.14-.08a.18.18,0,0,1,.16-.09A.32.32,0,0,1,76.45,41.73Z"/><path class="cls-1" d="M77,42.32l0,0,0,0,0,0Z"/><path class="cls-1" d="M76.87,42.27h0a0,0,0,0,1,0,0h0S76.86,42.26,76.87,42.27Z"/><path class="cls-1" d="M78.42,43.56h.13s0,.08,0,.08-.1,0-.13-.07Z"/><path class="cls-1" d="M78.55,43.57l-.07-.09.1,0s0,0,0,0l0,0Z"/><polygon class="cls-3" points="69.45 36.88 69.45 36.88 69.45 36.88 69.45 36.88"/><path class="cls-3" d="M70.84,36.44h0Z"/><path class="cls-1" d="M71.83,27.92l.45.16a2.19,2.19,0,0,1,.76.32,1,1,0,0,1,.25.42,2.52,2.52,0,0,1,0,1.71,2.14,2.14,0,0,1-.32.59,3.42,3.42,0,0,1-1.29,1,7.11,7.11,0,0,1-1,.39,3.25,3.25,0,0,1-1.53.33,2.4,2.4,0,0,1-1.07-.6,4.21,4.21,0,0,1-1.31-1.45A2.89,2.89,0,0,1,66.75,29a4.32,4.32,0,0,1,.61-1.44A4.47,4.47,0,0,1,68.72,26c.15-.1.29-.17.38-.22L69,28.31l.31.3a3.1,3.1,0,0,0,.55.42,1.87,1.87,0,0,0,.75.23,1.4,1.4,0,0,0,.7-.12A1.34,1.34,0,0,0,71.83,27.92Z"/><path class="cls-1" d="M88.35,22.42a6.9,6.9,0,0,0-.64-1.33,8.47,8.47,0,0,0-1.47-1.92A7.65,7.65,0,0,0,81.4,17a8.34,8.34,0,0,0-3.31.5,15.75,15.75,0,0,0-2.47,1.36c-2.29,1.42-2.34,1.64-3.64,2.29a11.38,11.38,0,0,1-3,1.1,6.77,6.77,0,0,1-1.47.17,4.9,4.9,0,0,1-3.88-1.83A3.17,3.17,0,0,1,63,18.52a3.06,3.06,0,0,1,.71-1.61,4.82,4.82,0,0,1,1.82-1.29,9.22,9.22,0,0,1,3.41-1,5.85,5.85,0,0,1,.69,0c.09-1.25.17-2.49.26-3.73.07-.68.14-1.37.2-2.05a15.27,15.27,0,0,0-2.41.27,13.17,13.17,0,0,0-5.47,2.23,11.59,11.59,0,0,0-2.95,3,8,8,0,0,0-1.17,2.56,8.84,8.84,0,0,0-.19,2.83,5.54,5.54,0,0,0,.27,1.5,5.69,5.69,0,0,0,.43.95,5.46,5.46,0,0,0,1.56,1.64,7.1,7.1,0,0,0,.84.5,10.73,10.73,0,0,0,2.43.93,11.56,11.56,0,0,0,2.76.26,12.24,12.24,0,0,0,3-.19,17.85,17.85,0,0,0,2.28-.72A13.45,13.45,0,0,0,73,24a23.42,23.42,0,0,0,2-1.26c.83-.52,1-.62,1.25-.75a8.38,8.38,0,0,1,1.49-.56,8.48,8.48,0,0,1,2.55-.29,7.15,7.15,0,0,1,1.27.15,6.36,6.36,0,0,1,2.09.78,2.14,2.14,0,0,1,.86.75,3.3,3.3,0,0,1,.26.59s.07.2.17.53a1.81,1.81,0,0,1,.1.46,1.69,1.69,0,0,1,0,.38,3.39,3.39,0,0,1-1.33,1.71c-1.15.76-2.47.61-3.82.46a6.71,6.71,0,0,1-2.54-.68c-.4-.21-.51-.33-1.4-.82a5.63,5.63,0,0,0-1.65-.74,5,5,0,0,0-1.46,0,5.41,5.41,0,0,0-.72.14c-.08.87-.16,1.74-.25,2.61a11.56,11.56,0,0,1,3.09.39,4,4,0,0,1,.73.37c.07.05.17.13.43.36s.54.54.78.77a7.89,7.89,0,0,0,3.27,1.78,6.77,6.77,0,0,0,3.41.14,6.7,6.7,0,0,0,2.26-1,5.51,5.51,0,0,0,2-2.14,7.11,7.11,0,0,0,.55-1.8,8.51,8.51,0,0,0,.26-1.59A6.75,6.75,0,0,0,88.35,22.42ZM61.28,24.31Zm3.12,1.08h0l.17,0Zm.2,0c.11-.09.15-.09.21,0S64.67,25.42,64.6,25.41Zm4.46-.06,0-.05,0,0ZM74.81,22s-.07.07-.07.1-.07.14-.14.19a1.18,1.18,0,0,1-.19.11c-.06,0-.13.06-.2,0a.18.18,0,0,0-.21.06s0,.08-.08.11-.23.22-.35.31a2.6,2.6,0,0,1-.4.23s0,0,0,0c-.3,0-.47.3-.7.46a1.22,1.22,0,0,1-.48.21.6.6,0,0,0-.22.09.17.17,0,0,1-.17,0l.12-.12.06,0a7,7,0,0,0,.94-.58A1.61,1.61,0,0,0,73,23a.29.29,0,0,1,.16-.07.88.88,0,0,0,.45-.23.81.81,0,0,0,.27-.25s.11-.07.17-.09.07,0,.11,0a.16.16,0,0,0,.14-.16c0-.19.17-.23.26-.32a.39.39,0,0,1,.31-.1s0,0,.08.05A2.09,2.09,0,0,0,74.81,22ZM75,20s0,0,0,0a.3.3,0,0,1-.1-.07.17.17,0,0,1,0-.05S75,20,75,20Zm2.29.66a.07.07,0,0,1,0,0,.93.93,0,0,1-.42.18h0a.44.44,0,0,1-.08.15,3.38,3.38,0,0,1-.79.57c-.08,0-.16.09-.25,0s0,0,0,0-.27.1-.4.16-.08,0-.11,0a.17.17,0,0,1-.11-.06s0-.06,0-.09a.65.65,0,0,1,.35-.2.14.14,0,0,1,.12,0c.07.09.12,0,.18,0l.3-.24s.07-.05.07-.08.11-.16.21-.2l.1-.05a.35.35,0,0,1,.4,0h0a.57.57,0,0,1,.11-.33.28.28,0,0,1,.34-.13l0,.05C77.22,20.6,77.22,20.6,77.29,20.69Zm1.93-.58a.26.26,0,0,1,0,.09c-.09.05-.22,0-.26.17h0a3,3,0,0,0-.66.12,4.31,4.31,0,0,0-.49.11.23.23,0,0,1-.3-.16l.15-.08s.09,0,.12,0a.27.27,0,0,1,.33,0,.12.12,0,0,0,.08,0l.13,0c.12-.05.25,0,.36,0s.22-.11.35-.09.16,0,.2-.09,0,0,.06,0A.31.31,0,0,1,79.22,20.11Zm.43-.26-.17-.06h.28C79.75,19.87,79.69,19.86,79.65,19.85ZM73.05,25l-.39,0a1,1,0,0,0-.17,0,1.48,1.48,0,0,1,1-.09Zm11.76-6.37-.16-.1C84.81,18.52,84.81,18.52,84.81,18.64Zm-.46-.28a.67.67,0,0,1-.43-.19C84.07,18.17,84.15,18.21,84.35,18.36Zm-.67-.3-.15,0-.17,0-.14-.08A.74.74,0,0,1,83.68,18.06Zm-1.19,2.25a.26.26,0,0,1-.19,0,.69.69,0,0,0-.29-.07.14.14,0,0,1-.12,0s-.08-.05-.13,0H81.7l0-.08L81.47,20h0c-.16.06-.33,0-.49.1a1.25,1.25,0,0,1-.65.18,1.15,1.15,0,0,1-.18,0c.11-.17.17-.22.32-.24a1,1,0,0,0,.39-.07s.07,0,.1,0h.15c.09,0,.16-.07.25,0s.05,0,.06,0a.27.27,0,0,1,.31,0s.1,0,.14.05.09,0,.1.07.13.11.22.09.27.06.38.15S82.55,20.29,82.49,20.31Zm1.45,1-.21-.11a.38.38,0,0,0-.32-.1.27.27,0,0,1-.11-.05,2.17,2.17,0,0,1-.38-.48.08.08,0,0,1,.09-.13c.17,0,.35.06.41.27l0,0,.37.21a.88.88,0,0,1,0-.17c.22,0,.29.18.39.37L84,21.08l0,.17A.06.06,0,0,1,83.94,21.31Zm1.11,2.25a1.43,1.43,0,0,0-.14-.34,3.24,3.24,0,0,1-.19-.52h0c-.14-.19-.22-.42-.43-.54l0,0c0-.15-.18-.21-.16-.38a.5.5,0,0,1,.13,0c.07,0,.13.08.22,0l-.15-.18-.13-.14s-.06-.09,0-.14.12-.08.17-.05a.18.18,0,0,1,.07.05c0,.06.09.12.14.17a.34.34,0,0,1,.12.31.34.34,0,0,0,.11.28,1.25,1.25,0,0,0,.37.25.32.32,0,0,1,.12.11.68.68,0,0,1,.11.34.1.1,0,0,1,0,.09s0,.05,0,.05a.08.08,0,0,1-.07,0c-.07-.13-.14-.26-.2-.39a.36.36,0,0,0-.14-.16.11.11,0,0,0-.08,0s0,0,0,.06,0,.05.06.07a.36.36,0,0,1,.11.25A1.35,1.35,0,0,0,85,23c0,.12.14.23.1.38s0,0,0,.07.14.26.19.4a1,1,0,0,1,0,.3c0,.06,0,.15,0,.18s-.13-.27-.13-.27C85.12,23.89,85.09,23.72,85.05,23.56Zm-.6,5.32,0,0a.11.11,0,0,1,.08.11s0,0,0,0l-.07,0A.34.34,0,0,1,84.45,28.88Zm-1.63.47c-.06.1-.09.17-.21.18a.94.94,0,0,0-.28.1c-.14.05-.24,0-.31-.16A3.51,3.51,0,0,1,82.82,29.35Zm-3.67,1.31a0,0,0,0,1,0,0h0l0,0S79.15,30.67,79.15,30.66Zm.16.07,0,0s0,0,0,0l0,0Zm.09,0h0Zm.81.36,0,0c0-.05-.13-.09-.1-.15s.52.07.52.12S80.34,31.1,80.21,31.12Zm2.3.22a.22.22,0,0,1,0-.08,1.23,1.23,0,0,1,.43,0Zm6-5.83s0,.09,0,.14,0,.06,0,.09-.08.31-.12.46-.07.28-.11.42l-.15.59a.15.15,0,0,1,0,.08c-.14,0-.11.15-.12.24a1.28,1.28,0,0,1-.11.33A5.38,5.38,0,0,1,87.13,29a.69.69,0,0,1-.13.11,2,2,0,0,1-.23.28,3.07,3.07,0,0,1-.26.25h0s0,.05,0,0,0,.06,0,.05v0l-.06,0-.65.47c-.13.1-.27.17-.41.26l-.68.32h0a.81.81,0,0,0-.38,0l-.41,0-.25,0h-.21a0,0,0,0,1,0,0s0-.05,0-.05.16,0,.2-.14.11-.09.18-.11a1,1,0,0,1,.39,0,.61.61,0,0,0,.46,0s0,0,0,0,.23,0,.32-.08h0c-.1,0-.2,0-.22-.12a.09.09,0,0,0-.07-.05c-.16,0-.32-.1-.48,0-.08-.23-.07-.24.12-.32L83.89,30a.12.12,0,0,0-.15.09c0,.08-.06.11-.13.14l-.32.15c0,.05,0,.12,0,.19l-.4.1-.11,0a.08.08,0,0,0,0,0s0,0,0,0l.13,0c.11,0,.16.05.22.12a.06.06,0,0,1,0,.09h-.2a.77.77,0,0,0-.3,0,.93.93,0,0,1-.47-.06c-.14-.05-.16-.1-.12-.23s0,0,0-.08-.08,0-.1,0a3.49,3.49,0,0,1-1.07,0l-.26,0a1.18,1.18,0,0,1-.54-.12.17.17,0,0,0,0,.08c0,.05,0,.08,0,.07a2.3,2.3,0,0,1-.28-.06s-.1-.05-.14,0-.2,0-.23-.14l.39-.11c-.06,0-.09-.07-.13-.07a2,2,0,0,0-.35,0A.38.38,0,0,1,79,30a.3.3,0,0,0-.08-.07.27.27,0,0,1-.08.1c-.08.09-.14.09-.25,0s-.45-.22-.66-.35-.41-.28-.61-.43l0-.06a.38.38,0,0,1,.28.05.43.43,0,0,0,.3.11,2,2,0,0,1,.24,0,.52.52,0,0,1,.26.12.23.23,0,0,0,.29.06.14.14,0,0,1,.09,0,1.36,1.36,0,0,0,.44.08,1,1,0,0,1,.38.17.21.21,0,0,0,.15.07H80l-.14-.1a1.42,1.42,0,0,1-.18-.08s0-.06,0-.09,0-.06.08-.05l.29.14a.09.09,0,0,1,0,.05c0,.15.12.16.2.19a.64.64,0,0,0,.41,0,.06.06,0,0,0,0-.09l-.09,0c-.08-.05-.08-.13,0-.17a.2.2,0,0,1,.26,0,.39.39,0,0,0,.19.1c.06,0,.12.05.07.14s0,0,0,.05.12.15.35,0l-.17-.05a.22.22,0,0,1,0-.11.18.18,0,0,1,.1-.07.92.92,0,0,1,.33,0h0c0,.09.15.09.23.12s.09.05.15,0a.8.8,0,0,1,.21-.05.73.73,0,0,0,.34-.14s.09,0,.14-.06a.71.71,0,0,0,.14-.1.21.21,0,0,1,.36,0c0,.11,0,.07.09.08s0,0,0,0,0,0,0,0-.18.18-.3.23,0,.08,0,.08a.83.83,0,0,0,.22,0s.06,0,.07-.07a.19.19,0,0,1,.1-.1c.19-.1.22-.17.07-.34l.41-.13a.26.26,0,0,1,.22.09c0,.07.06.07.09,0s.05-.05.05-.08.08-.19.18-.25l.33-.2a.59.59,0,0,1,.31-.09.32.32,0,0,0,.34-.23.93.93,0,0,1,.23-.34.56.56,0,0,1,.34-.17.52.52,0,0,0,.31-.23,1.43,1.43,0,0,0,.12-.21.73.73,0,0,1,.28-.3c.09,0,.15-.14.25-.16s.06-.07.08-.11.09-.19.14-.3h-.06s-.08,0-.1,0a.24.24,0,0,1-.06-.11.27.27,0,0,1,0-.09c.07-.18.13-.37.19-.56s.12-.15.18-.13.11,0,.12-.07a1.45,1.45,0,0,1,.09-.22s0-.07.06-.07.17-.14.21-.25l0-.05c.06,0,0,.06,0,.09s0,.22,0,.33A.39.39,0,0,1,88,26a.65.65,0,0,0,0,.21,2,2,0,0,0-.07.54c-.08.18,0,.38-.05.57a.32.32,0,0,0,.13-.21c.07-.24.16-.47.21-.71s.13-.63.2-.94.07-.34.09-.52h0c0-.08,0-.24,0-.21a4.88,4.88,0,0,1,.07.7h0A.5.5,0,0,0,88.52,25.51Zm-4.9,5,.17-.08s0,0,.07.05l0,0-.17,0Z"/><path class="cls-1" d="M90.27,40.88a9.51,9.51,0,0,0-.66-2.49,10.25,10.25,0,0,0-1.87-2.91A12.63,12.63,0,0,0,85,33.16a14.31,14.31,0,0,0-5.4-2,12,12,0,0,0-3.57-.22,6.55,6.55,0,0,0-2,.44c-.44.18-.48.26-1.6.81-.11.06-.66.33-1.4.64h0a1.09,1.09,0,0,1-.47.18l-.7.16h-.4a3.44,3.44,0,0,1-.74-.28h0l-.11-.08c-.08,0-1.16-1-1.16-1l-.26-.33L67,31.18a.74.74,0,0,0-.34,0,.88.88,0,0,0-.37.15,5.32,5.32,0,0,0-1.57,2,3,3,0,0,0-.36,1.3,2.36,2.36,0,0,0,.46,1.52,2.51,2.51,0,0,0,1,.76,4,4,0,0,0,1.44.39,4.9,4.9,0,0,0,1.38,0h0l.55-.17.71-.28.17-.07.07,0,.27-.12.07,0,.31-.14h0l0,0h0c1-.44.94-.44,1.26-.56a14.16,14.16,0,0,1,2-.58A13,13,0,0,1,76,34.91a8.31,8.31,0,0,1,2.57.21,7.61,7.61,0,0,1,2.68,1.13A7.43,7.43,0,0,1,83,38a7.26,7.26,0,0,1,1.64,4,2.86,2.86,0,0,1-.59,2.34,2.41,2.41,0,0,1-1.2.51,2.54,2.54,0,0,1-1-.12,6.44,6.44,0,0,1-1.28-.51c-.24-.13-.5-.29-.77-.47-.55-.35-1.08-.73-1.6-1.12l-.51-.4h0L77.39,42l-.06,0,0,0-.06,0-.09-.06h0l-.43-.29,0,0h0l-.26-.17h0L76,41.1h0L75.93,41h0l0,0a10.24,10.24,0,0,0-1.55-.75l-.18-.07h0L73.56,40l-.07,0-.2-.06h0l-.07,0-.43-.11a1.82,1.82,0,0,1-.4-.11L72,39.61c-.29-.06-.63-.13-1-.19l-.18,0h0V42.2a2.81,2.81,0,0,0,0,.29c.14,0,.32.09.45.15L72,43,72,43l.28.18.73.47a9.24,9.24,0,0,1,1.26.89c.42.35.84.7,1.25,1.06h0l.51.43,1.2,1.06.47.39h0c.41.3.78.57,1.14.81a10.2,10.2,0,0,0,1,.57l.65.28h0a7.46,7.46,0,0,0,4.5.2h0a7.28,7.28,0,0,0,3.8-2.64,7.63,7.63,0,0,0,1.25-2.91A9.17,9.17,0,0,0,90.27,40.88ZM69.23,37c-.09,0-.2,0-.28.11s-.11,0-.17,0a1.79,1.79,0,0,0-.51.07h-.12c.15-.11.29-.08.41-.12a2.09,2.09,0,0,1,.36-.08l.37-.09,0,0A.47.47,0,0,1,69.23,37Zm.22-.12,0,0,0,0h.08Zm.08-.55c-.2,0-.37.1-.57.11l0,0a.68.68,0,0,1,.36-.26l.39-.12h.21A1.53,1.53,0,0,1,69.53,36.34Zm1.12.06h0Zm3-1.42a.36.36,0,0,1,.34-.07A.55.55,0,0,1,73.63,35Zm3.45-.66a1.61,1.61,0,0,0-.58,0,.85.85,0,0,1-.39,0,.74.74,0,0,0-.49.07,2.56,2.56,0,0,0-.35.22.45.45,0,0,1-.34,0l0,0h0a.06.06,0,0,1,0-.1l.08-.06s0,0,0,0l0,0c-.07,0-.16,0-.17.09a1.21,1.21,0,0,1-.32.11s-.09,0-.12,0a.62.62,0,0,1-.37.11.37.37,0,0,0-.29.07s-.11,0-.17.06l-.17.09,0,0c-.08.05-.18,0-.25,0a.35.35,0,0,1-.22.12c-.08,0-.15,0-.22,0l-.27.07a1.79,1.79,0,0,1-.39.13h-.07l0,0h0l0,0-.1.06,0,0-.07.06c-.06.06-.12.14-.23.09s0,0-.06,0-.17.08-.31.08c.11-.09.14-.22.3-.19a.22.22,0,0,0,.13-.06.33.33,0,0,0,0-.17s-.06,0-.09-.06a.07.07,0,0,1,0-.08h0c.06,0,.13-.11.19-.11a.54.54,0,0,0,.33-.13c.1-.06.18-.11.3-.05a.32.32,0,0,0,.28,0,.16.16,0,0,0,.07-.07c0-.11.11-.14.21-.15a.94.94,0,0,1,.29,0,.47.47,0,0,0,.34-.1.93.93,0,0,1,.39-.15l.24-.09a1.08,1.08,0,0,1,.53-.12.44.44,0,0,0,.25-.06.38.38,0,0,1,.19,0l.32,0-.11.06a.73.73,0,0,0-.05.09s.08,0,.1,0c.18-.14.41-.14.61-.24s.21,0,.3-.1.07,0,.1,0a.67.67,0,0,0,.52,0l.08,0a.1.1,0,0,1,.1.11.17.17,0,0,0,0,.07s0,.08.08.08h.08a.26.26,0,0,1,.13.06S77.17,34.34,77.08,34.32Zm.69-.15a.36.36,0,0,0-.23,0s-.08-.05-.1-.08,0-.07,0-.07.16,0,.38,0C77.82,34.13,77.79,34.18,77.77,34.17Zm1.3.07a1.55,1.55,0,0,1-.71-.1.88.88,0,0,1-.17-.14.22.22,0,0,1,.32,0,.16.16,0,0,0,.17.06.94.94,0,0,1,.4.09s0,0,0,.05Zm.55-1.58a.42.42,0,0,1-.29-.07.55.55,0,0,0-.25-.07l-.39,0c-.08,0-.13-.06-.19-.16l.32-.06.23-.05a.68.68,0,0,1,.46.12c.08,0,.14.09.24.06a1.65,1.65,0,0,1,.52.2s0,0,0,0l-.12,0Zm.71,1.71a.3.3,0,0,1-.13,0,1.77,1.77,0,0,1-.17-.12,0,0,0,0,1,0,0l0,0h0l.24.17Zm.52-1.27a.24.24,0,0,1-.23-.1.24.24,0,0,0-.23-.09.36.36,0,0,1-.28,0h.77c.15,0,.15,0,.16.22ZM72.6,40.91a2,2,0,0,0-.37.12.75.75,0,0,1-.38.07c-.06,0-.13,0-.22-.07.13-.09.21-.16.34-.11a.5.5,0,0,0,.17,0,1.13,1.13,0,0,1,.56,0Zm1.36.21a.68.68,0,0,1-.42-.08.66.66,0,0,0-.18,0s.07.07.07.09,0,.07,0,.07h-.17a.14.14,0,0,1-.09-.09s0-.06.08-.07,0,0,0-.08a.41.41,0,0,0-.19-.18.11.11,0,0,1-.07-.13h-.26c-.08,0-.17,0-.17-.12s-.06-.08-.1-.12c.13-.11.24,0,.35,0a.07.07,0,0,1,0,.05s0,.06,0,.06a.12.12,0,0,1,.09,0,.16.16,0,0,1,0,.11h0l.08,0h.12a.37.37,0,0,1,.48,0c.11.09.2.2.32.29s0,.07.06.11S74.06,41.11,74,41.12Zm2,.6a.74.74,0,0,1-.36-.09,2.09,2.09,0,0,0-.36-.07.8.8,0,0,0-.26,0,.22.22,0,0,1-.26-.16l.12,0s0,0,0-.06,0-.06,0-.06c-.21,0-.35-.2-.53-.29a.18.18,0,0,1-.11-.17s0-.09.08-.08a.77.77,0,0,0,.3,0,.61.61,0,0,1,.37.12.15.15,0,0,1,0,.06.06.06,0,0,1,0,.06A.07.07,0,0,1,75,41l-.19,0a.5.5,0,0,0-.17,0c.13.1.23.24.42.24a.38.38,0,0,1,.17.08c.08,0,.14.1.22.1a4.9,4.9,0,0,1,.56.13l-.1-.16.15,0c.21.11.43.21.64.33a1.65,1.65,0,0,1,.48.43.46.46,0,0,0,.16.15c.19,0,.31.21.49.3l-.13,0A1.23,1.23,0,0,0,78,43a.37.37,0,0,1,.12.2,1.82,1.82,0,0,0,.11.3.25.25,0,0,1-.31-.11l-.39-.52s0-.09,0-.14,0-.08-.09-.07-.12,0-.15.05-.36,0-.45-.19-.11-.11-.15-.18a.36.36,0,0,0-.26-.18.9.9,0,0,1-.28-.13C75.93,42,75.91,41.9,76,41.72Zm.84,4s0,0-.06,0a1.36,1.36,0,0,1-.36-.27,2.09,2.09,0,0,0-.14-.17.15.15,0,0,1,.17,0c.14.11.26.24.39.36A.06.06,0,0,1,76.82,45.74Zm.67.55-.12-.08L77.19,46a.47.47,0,0,1,.16,0,.14.14,0,0,1,.11,0,.86.86,0,0,1,.18.34Zm.48.46a.32.32,0,0,1-.29-.27,3.17,3.17,0,0,1,.45.23s0,0,.06.07Zm.76.45c.09,0,.09,0,.15.28A.36.36,0,0,1,78.73,47.2Zm1.28,1a.12.12,0,0,1-.08,0l-.24-.11L79.43,48h0a2.07,2.07,0,0,0-.39-.33s0,0,0-.06a.15.15,0,0,1,.06,0,.32.32,0,0,1,.26.15.78.78,0,0,0,.32.25l.35.17C80,48.09,80,48.14,80,48.18Zm.08-3.64c-.1-.09-.19,0-.27,0a.11.11,0,0,1-.13,0,.71.71,0,0,1-.38-.3c-.06-.11-.1-.12-.2-.09l-.12,0a.28.28,0,0,1-.28,0,.4.4,0,0,1-.12-.11s-.06-.08-.13-.08-.11-.11-.21-.12a1.06,1.06,0,0,1-.25-.09l0,0c.1-.11.23-.07.36-.07a.44.44,0,0,0,0-.1c0-.06.06-.05.09-.07h0c0-.05,0-.1,0-.13a.36.36,0,0,1-.12-.08s0-.08,0-.09a.3.3,0,0,1,.16.05l.31.16a.46.46,0,0,1,.13.08l.27.22a.33.33,0,0,0,.34.09h0a.16.16,0,0,1,.16.06l.09.07s0,.06,0,.07,0,.14.09.17a.58.58,0,0,1,.3.33S80.12,44.56,80.09,44.54ZM89,38c-.11,0-.13-.11-.16-.17a.72.72,0,0,1,0-.27A.66.66,0,0,1,89,38Zm-1.66-1.95.06,0,.06.08-.07,0h-.09Zm-.26-.51s.08,0,.09.05a1.74,1.74,0,0,1,.11.18s0,.09,0,.1-.07,0-.09-.06a1.07,1.07,0,0,1-.14-.16S87.11,35.6,87.12,35.55Zm-5.69-.44h0l0,0,0,0h.05a.1.1,0,0,1,0,.05Zm2.15-1a1.25,1.25,0,0,0-.36-.15l0,0c-.06-.13-.18-.14-.3-.17a1.92,1.92,0,0,1-.35-.18l-.41-.2c-.07,0-.14-.06-.14-.16s0,0,0-.07,0-.06,0-.09l.1,0h0c.07,0,.14,0,.21.08l.19.14a.44.44,0,0,0,.29.14,1,1,0,0,1,.27.09s.1,0,.11.09.18.17.26.26a.2.2,0,0,0,.13.06c.07,0,.1,0,.15.08s.1,0,.09.11S83.66,34.16,83.58,34.13ZM81.94,49l-.38-.1a.72.72,0,0,1,.38,0,3.11,3.11,0,0,0,.44.07A.49.49,0,0,1,81.94,49Zm1.25.19a.19.19,0,0,1-.19,0s-.07,0-.11,0a.43.43,0,0,1-.38-.21s0,0,0,0H83a.86.86,0,0,1,.26.21S83.24,49.15,83.19,49.16Zm3.7-.81s-.07.08,0,.14l-.11.08a.39.39,0,0,1-.31-.08c-.14,0-.2-.09-.29-.13l-.66.4a.43.43,0,0,1-.12.05.31.31,0,0,1-.17,0h-.3a.73.73,0,0,0-.3.06l-.17,0h-.09a1.86,1.86,0,0,1-.74,0s-.07,0-.06-.07a.06.06,0,0,1,0,0h.17a1.09,1.09,0,0,0,.71-.14l0,0,0,0s0,0,0,0h0a1.86,1.86,0,0,0,.62.08h0l.07,0,0,0,.27-.14c.16-.09.31-.19.46-.29l0,0c0,.06.05.07.11,0a1.28,1.28,0,0,0,.38-.21.41.41,0,0,1,.33-.07,1,1,0,0,1-.09.15c0,.06,0,.1.06.1h0C86.91,48.25,86.93,48.27,86.89,48.35Zm3.25-5.82a.17.17,0,0,1-.12.08c-.1,0-.1,0-.1.13a.36.36,0,0,1,0,.1.79.79,0,0,0-.06.34c0,.13,0,.25,0,.38a.09.09,0,0,1-.06.1s0,.05-.06.08l0,0s.07,0,.06,0a2.53,2.53,0,0,0,0,.28.57.57,0,0,1-.08.24.46.46,0,0,1-.08.13c0,.05,0,.09,0,.15s0,.05-.06.06a.19.19,0,0,0-.15.23c0,.05.07.07.11,0l.19-.21a.5.5,0,0,1-.2.47L89.45,45a.4.4,0,0,0,0,.32.62.62,0,0,1,0,.19,2.31,2.31,0,0,1-.18.35.55.55,0,0,0-.06.18,2.07,2.07,0,0,1-.1.33c0,.07-.06.06-.11,0a.1.1,0,0,1,0,0l.14-.25a1.3,1.3,0,0,0,.08-.17c0-.06,0-.08-.06-.1s-.07,0-.09,0l-.19.21c-.07.08-.07.07,0,.19s0,.07,0,.1a.42.42,0,0,1-.14.26l-.39.39,0,0a1,1,0,0,0-.19.12s-.09.13-.14.19l-.15.18c-.05.05-.09.11-.14.15l-.33.24-.1.05L87,48l-.14.07a1,1,0,0,1,.52-.58,1,1,0,0,0,.24-.21l.19-.27a.39.39,0,0,1,.1-.08c.15-.1.17-.16.09-.3a.14.14,0,0,1,0-.16.58.58,0,0,1,.33-.3.23.23,0,0,0,.11-.11c.06-.14.1-.28.16-.41s0-.08,0-.09,0-.06,0-.07a.39.39,0,0,0,0-.3.59.59,0,0,1,.22-.58.2.2,0,0,1,0,.26.67.67,0,0,0-.07.18.17.17,0,0,0,0,.2c0-.12.18-.18.09-.33s.07-.32.12-.47.14-.1.21-.06a.07.07,0,0,1,0,.07.38.38,0,0,1,0,.16c-.11.12-.08.28-.13.41s0,0,0,.05.2-.13.21-.27a.62.62,0,0,1,.07-.19.88.88,0,0,0,0-.48s0-.09-.05-.1-.12-.16-.12-.27v-.11l0,0,.06.07c.1-.13.09-.29.15-.43s0,0,0-.06a1.55,1.55,0,0,1-.2-.79s0-.07,0-.09-.11-.26-.19-.39a2.64,2.64,0,0,1-.15-.29.14.14,0,0,1,0-.06,3.62,3.62,0,0,0,0-.46.37.37,0,0,0-.14-.3c-.08-.06-.14-.14-.22-.2s-.08-.19,0-.3h0s.07.06.08.1.1.11.18.13,0-.23,0-.35l.11,0,0,0h0l0,0c0-.07,0-.12.06-.15a.48.48,0,0,1,0,.12.89.89,0,0,1,0-.1s0-.07.06-.05.08,0,.1,0a.18.18,0,0,0,0-.1s-.08,0-.11,0,0,0-.06,0a.71.71,0,0,1-.19-.41,2.61,2.61,0,0,0-.16-.61c0-.09-.07-.17-.11-.26,0,.14.07.27,0,.41a.4.4,0,0,1-.3-.42c0-.1,0-.2,0-.31a.54.54,0,0,0-.06-.25.36.36,0,0,1,0-.15.52.52,0,0,0-.23-.41.47.47,0,0,0,0,.12.42.42,0,0,1,0,.33s-.08,0-.09-.08a.32.32,0,0,0-.12-.2c-.09-.11-.17-.21,0-.34a.06.06,0,0,0,0-.06,4.44,4.44,0,0,0-.49-.73c0-.05-.06,0-.12,0s0,0-.07,0l-.1-.06a.58.58,0,0,1,0,.14s0,.07,0,.08H87l-.08-.07a1,1,0,0,0-.31-.24.4.4,0,0,1-.26-.35.36.36,0,0,0-.16-.25c-.17-.13-.33-.28-.52-.43a.46.46,0,0,0,0,.1.25.25,0,0,0,0,.07l-.25-.08,0,0c0-.13-.17-.18-.24-.28s0-.07,0-.08,0-.14-.06-.21a.28.28,0,0,0-.21-.08c-.08,0-.11,0-.13.07a.1.1,0,0,1-.13.05l-.12-.06c-.12-.09-.23-.18-.36-.26a.21.21,0,0,1-.09-.17l.14-.06a.17.17,0,0,1,.22,0l.57.38a.23.23,0,0,1,0-.1c.09-.1.09-.12,0-.19s-.09-.1-.13-.15a.09.09,0,0,1,0-.12.12.12,0,0,1,.1,0,.46.46,0,0,1,.16.11c.07.08.11.19.18.27a2.37,2.37,0,0,0,.28.27,1.54,1.54,0,0,1,.49.46.11.11,0,0,0,.15.06c.08,0,.14,0,.2,0s.22.13.22.29h-.17s0,0,0,.06a.89.89,0,0,0,.3.28s.06.06.09.09,0,.07.06.07.19.13.27.22,0,0,0,0,0,0,0-.06,0,0,0,0a.05.05,0,0,0,0,0c0-.06,0-.09.07-.08h.06l.14,0c.11,0,.12,0,.11.11a.27.27,0,0,0,.09.27,1.16,1.16,0,0,1,.18.2L88,36.7c.07.12.15.2.12.33s0,0,0,.06,0,.12,0,.18,0,.06.06.09.31,0,.38.22c0,0,0,0,0,0a.61.61,0,0,1,.25.44.49.49,0,0,0,.21.32.38.38,0,0,1,.18.41s-.05,0-.06,0a1.09,1.09,0,0,1-.1-.11l0,0a1,1,0,0,0,.23.44.8.8,0,0,1,.27.51.75.75,0,0,0,.13.38c0,.05.06.05.16,0,0,.16.06.32.08.48s0,.43.07.65a.3.3,0,0,1,0,.13s0,0,0,.06.14.35.32.44h0a1.61,1.61,0,0,1,0,.62A.11.11,0,0,0,90.14,42.53Zm-2.75-5.28a.56.56,0,0,0-.09-.17,1.64,1.64,0,0,0-.14-.22s0,0,0,0,.14-.11.24,0a1.53,1.53,0,0,1,.14.21.15.15,0,0,1,0,.11c-.08.15,0,.27.08.38a.67.67,0,0,1,.09.26,3.11,3.11,0,0,0,0,.32.92.92,0,0,0,.18.3,2.21,2.21,0,0,1,.23.36c0,.11.13.21.19.32a1.73,1.73,0,0,1,.19.28.33.33,0,0,1,0,.17,1.61,1.61,0,0,0,.07.43.45.45,0,0,1,0,.3c-.11-.16-.25-.26-.23-.46a.48.48,0,0,0-.07-.23,2.1,2.1,0,0,1-.29-.58.91.91,0,0,0-.07-.14c0-.06-.05-.1-.12-.1a.12.12,0,0,1-.12-.08c0-.15-.15-.29-.1-.46s0-.14-.08-.21a4.62,4.62,0,0,1-.45-.64.91.91,0,0,1,0-.16l.19.1a.06.06,0,0,0,.06,0S87.4,37.26,87.39,37.25Zm1.42,4.9s0-.06.06-.08,0,0,.07,0a.4.4,0,0,1,0,.46A.73.73,0,0,1,88.81,42.15Z"/></g></g></svg>